<svg aria-hidden="true" style="position: absolute; width: 0; height: 0; overflow: hidden;" version="1.1" xmlns="http://www.w3.org/2000/svg" xmlns:xlink="http://www.w3.org/1999/xlink">
<defs>
<symbol id="icon-arrow-left" viewBox="0 0 32 32">
<path stroke-linejoin="round" stroke-linecap="round" stroke-miterlimit="4" stroke-width="2.666" d="M25.334 16h-18.668M16 25.334l-9.334-9.334 9.334-9.334"></path>
</symbol>
<symbol id="icon-arrow-right" viewBox="0 0 32 32">
<path stroke-linejoin="round" stroke-linecap="round" stroke-miterlimit="4" stroke-width="2.666" d="M6.666 16h18.668M16 25.334l9.334-9.334-9.334-9.334"></path>
</symbol>
<symbol id="icon-dots" viewBox="0 0 107 32">
<path d="M17.248 5.333c2.837 0 5.013 0.811 6.56 2.443 1.435 1.482 2.319 3.504 2.319 5.733 0 0.092-0.002 0.184-0.005 0.275l0-0.013c0.002 0.071 0.004 0.155 0.004 0.24 0 2.219-0.884 4.231-2.32 5.703l0.002-0.002c-1.536 1.536-3.733 2.304-6.56 2.304-2.709 0-4.853-0.768-6.432-2.304-1.478-1.441-2.394-3.451-2.394-5.676 0-0.097 0.002-0.194 0.005-0.29l-0 0.014c0-2.421 0.768-4.416 2.315-5.995 1.536-1.632 3.701-2.443 6.507-2.443zM53.013 5.333c2.827 0 5.013 0.811 6.56 2.443 1.435 1.482 2.319 3.504 2.319 5.733 0 0.092-0.002 0.184-0.005 0.275l0-0.013c0.002 0.071 0.004 0.155 0.004 0.24 0 2.219-0.884 4.231-2.32 5.703l0.002-0.002c-1.547 1.536-3.733 2.304-6.56 2.304-2.709 0-4.853-0.768-6.443-2.304-1.465-1.439-2.373-3.441-2.373-5.655 0-0.101 0.002-0.201 0.006-0.3l-0 0.014c0-2.421 0.768-4.416 2.304-5.995 1.536-1.632 3.701-2.443 6.507-2.443zM88.747 5.333c2.837 0 5.024 0.811 6.571 2.443 1.428 1.481 2.308 3.498 2.308 5.722 0 0.096-0.002 0.191-0.005 0.287l0-0.014c0.002 0.075 0.004 0.162 0.004 0.25 0 2.214-0.88 4.221-2.31 5.693l0.002-0.002c-1.547 1.536-3.733 2.304-6.571 2.304-2.709 0-4.853-0.768-6.432-2.304-1.471-1.44-2.383-3.446-2.383-5.666 0-0.097 0.002-0.194 0.005-0.29l-0 0.014c0-2.421 0.768-4.416 2.315-5.995 1.536-1.632 3.712-2.443 6.496-2.443z"></path>
</symbol>
</defs>
</svg>
